# Blender v2.71 (sub 0) OBJ File: 'Graphics.blend'
# www.blender.org
o Board_Cube.004
v -1.000000 -1.000000 1.000000
v -1.000000 -1.000000 -1.000000
v 1.000000 -1.000000 -1.000000
v 1.000000 -1.000000 1.000000
v -1.000000 -0.669449 1.000000
v -1.000000 -0.669449 -1.000000
v 1.000000 -0.669449 -1.000000
v 1.000000 -0.669449 1.000000
v 0.826667 -0.669449 -1.000000
v 0.826667 -1.000000 -1.000000
v 0.826667 -0.669449 1.000000
v 0.826667 -1.000000 1.000000
v -0.816642 -1.000000 -1.000000
v -0.816642 -0.669449 1.000000
v -0.816642 -0.669449 -1.000000
v -0.816642 -1.000000 1.000000
v -1.000000 -0.669449 -0.806000
v -1.000000 -1.000000 -0.806000
v 1.000000 -0.669449 -0.806000
v 1.000000 -1.000000 -0.806000
v 0.826667 -1.000000 -0.806000
v 0.826667 -0.858264 -0.806000
v -0.839797 -0.860700 -0.791315
v -0.816642 -1.000000 -0.806000
v -1.000000 -1.000000 0.813267
v 1.000000 -0.669449 0.813267
v 0.826667 -1.000000 0.813267
v 0.826667 -0.891809 0.813267
v -0.816642 -0.865971 0.813267
v -0.816642 -1.000000 0.813267
v -1.000000 -0.669449 0.813267
v 1.000000 -1.000000 0.813267
vn -1.000000 0.000000 0.000000
vn 0.000000 0.000000 -1.000000
vn 1.000000 0.000000 0.000000
vn 0.000000 0.000000 1.000000
vn 0.000000 -1.000000 0.000000
vn 0.000000 0.737200 0.675600
vn 0.000000 0.716600 0.697500
vn 0.766900 0.641700 -0.009000
vn -0.736600 0.676200 0.014000
vn -0.001300 0.999800 0.020700
vn 0.731200 0.682200 0.000000
vn -0.788700 0.614800 0.000000
vn 0.010800 0.688800 -0.724900
vn 0.766600 0.642100 0.000000
vn -0.736700 0.676300 0.000000
vn 0.005100 0.716600 0.697500
vn 0.015700 0.999900 0.003100
vn 0.000000 0.688800 -0.724900
vn 0.000000 0.643100 -0.765800
s off
f 6//1 2//1 18//1
f 7//2 3//2 10//2
f 8//3 4//3 32//3
f 5//4 1//4 16//4
f 10//5 3//5 20//5
f 23//6 15//6 6//6
f 9//2 10//2 13//2
f 11//4 12//4 4//4
f 13//5 10//5 21//5
f 7//7 9//7 22//7
f 14//4 16//4 12//4
f 9//6 15//6 23//6
f 15//2 13//2 2//2
f 2//5 13//5 24//5
f 17//1 18//1 25//1
f 19//3 20//3 3//3
f 21//5 20//5 32//5
f 29//8 23//8 17//8
f 24//5 21//5 27//5
f 19//9 22//9 28//9
f 28//10 22//10 23//10
f 18//5 24//5 30//5
f 26//3 32//3 20//3
f 31//1 25//1 1//1
f 27//5 32//5 4//5
f 29//11 31//11 5//11
f 30//5 27//5 12//5
f 8//12 26//12 28//12
f 28//13 29//13 14//13
f 25//5 30//5 16//5
f 17//1 6//1 18//1
f 9//2 7//2 10//2
f 26//3 8//3 32//3
f 14//4 5//4 16//4
f 21//5 10//5 20//5
f 17//14 23//14 6//14
f 15//2 9//2 13//2
f 8//4 11//4 4//4
f 24//5 13//5 21//5
f 19//15 7//15 22//15
f 11//4 14//4 12//4
f 22//16 9//16 23//16
f 6//2 15//2 2//2
f 18//5 2//5 24//5
f 31//1 17//1 25//1
f 7//3 19//3 3//3
f 27//5 21//5 32//5
f 31//11 29//11 17//11
f 30//5 24//5 27//5
f 26//12 19//12 28//12
f 29//17 28//17 23//17
f 25//5 18//5 30//5
f 19//3 26//3 20//3
f 5//1 31//1 1//1
f 12//5 27//5 4//5
f 14//18 29//18 5//18
f 16//5 30//5 12//5
f 11//19 8//19 28//19
f 11//19 28//19 14//19
f 1//5 25//5 16//5
